{
    "asset" : {
        "generator" : "Khronos glTF Blender I/O v1.2.75",
        "version" : "2.0"
    },
    "scene" : 0,
    "scenes" : [
        {
            "name" : "Scene",
            "nodes" : [
                0
            ]
        }
    ],
    "nodes" : [
        {
            "mesh" : 0,
            "name" : "Kai'sa",
            "rotation" : [
                0.7071068286895752,
                0,
                0,
                0.7071067094802856
            ],
            "scale" : [
                0.011276925913989544,
                0.01013245340436697,
                0.008859565481543541
            ]
        }
    ],
    "materials" : [
        {
            "doubleSided" : true,
            "emissiveFactor" : [
                0,
                0,
                0
            ],
            "name" : "15___Default",
            "pbrMetallicRoughness" : {
                "baseColorTexture" : {
                    "index" : 0,
                    "texCoord" : 0
                },
                "metallicFactor" : 0,
                "roughnessFactor" : 0.8945907354354858
            }
        }
    ],
    "meshes" : [
        {
            "name" : "Kai'sa",
            "primitives" : [
                {
                    "attributes" : {
                        "POSITION" : 0,
                        "NORMAL" : 1,
                        "TEXCOORD_0" : 2
                    },
                    "indices" : 3,
                    "material" : 0
                }
            ]
        }
    ],
    "textures" : [
        {
            "source" : 0
        }
    ],
    "images" : [
        {
            "mimeType" : "image/png",
            "name" : "Kaisa_base_TX_CM.JohnClick",
            "uri" : "Kaisa_base_TX_CM_JohnClick.png"
        }
    ],
    "accessors" : [
        {
            "bufferView" : 0,
            "componentType" : 5126,
            "count" : 6165,
            "max" : [
                56.008201599121094,
                21.722900390625,
                0.06809999793767929
            ],
            "min" : [
                -56.008201599121094,
                -104.74579620361328,
                -204.26229858398438
            ],
            "type" : "VEC3"
        },
        {
            "bufferView" : 1,
            "componentType" : 5126,
            "count" : 6165,
            "type" : "VEC3"
        },
        {
            "bufferView" : 2,
            "componentType" : 5126,
            "count" : 6165,
            "type" : "VEC2"
        },
        {
            "bufferView" : 3,
            "componentType" : 5123,
            "count" : 27981,
            "type" : "SCALAR"
        }
    ],
    "bufferViews" : [
        {
            "buffer" : 0,
            "byteLength" : 73980,
            "byteOffset" : 0
        },
        {
            "buffer" : 0,
            "byteLength" : 73980,
            "byteOffset" : 73980
        },
        {
            "buffer" : 0,
            "byteLength" : 49320,
            "byteOffset" : 147960
        },
        {
            "buffer" : 0,
            "byteLength" : 55962,
            "byteOffset" : 197280
        }
    ],
    "buffers" : [
        {
            "byteLength" : 253244,
            "uri" : "flasa.bin"
        }
    ]
}
