{"accessors" : [{"bufferView" : 0, "byteOffset" : 0, "componentType" : 5123, "count" : 27030, "type" : "SCALAR", "max" : [5929], "min" : [0]}, {"bufferView" : 1, "byteOffset" : 0, "componentType" : 5126, "count" : 5930, "type" : "VEC3", "max" : [56.0081672668457, 204.26235961914062, 21.722890853881836], "min" : [-56.008140563964844, -0.06810818612575531, -104.74581146240234], "name" : "POSITION"}, {"bufferView" : 1, "byteOffset" : 12, "componentType" : 5126, "count" : 5930, "type" : "VEC3", "max" : [0.9999854564666748, 0.9994706511497498, 0.9999433159828186], "min" : [-0.9999854564666748, -0.9981024861335754, -0.9995250701904297], "name" : "NORMAL"}, {"bufferView" : 1, "byteOffset" : 24, "componentType" : 5126, "count" : 5930, "type" : "VEC2", "max" : [0.9989278316497803, 0.9957000017166138], "min" : [0.006899999920278788, 0.0003000497817993164], "name" : "TEXCOORD_0"}, {"bufferView" : 0, "byteOffset" : 54060, "componentType" : 5123, "count" : 348, "type" : "SCALAR", "max" : [89], "min" : [0]}, {"bufferView" : 3, "byteOffset" : 0, "componentType" : 5126, "count" : 90, "type" : "VEC3", "max" : [39.78694152832031, 187.48782348632812, -11.020658493041992], "min" : [-39.786949157714844, 162.20069885253906, -44.19693374633789], "name" : "POSITION"}, {"bufferView" : 3, "byteOffset" : 12, "componentType" : 5126, "count" : 90, "type" : "VEC3", "max" : [0.9984503388404846, 0.9245492219924927, 0.8358111381530762], "min" : [-0.9984573125839233, -0.6031472086906433, -0.5478034615516663], "name" : "NORMAL"}, {"bufferView" : 3, "byteOffset" : 24, "componentType" : 5126, "count" : 90, "type" : "VEC2", "max" : [0.9878000020980835, 0.5960999727249146], "min" : [0.47829997539520264, 0.23080003261566162], "name" : "TEXCOORD_0"}, {"bufferView" : 0, "byteOffset" : 54756, "componentType" : 5123, "count" : 360, "type" : "SCALAR", "max" : [109], "min" : [0]}, {"bufferView" : 5, "byteOffset" : 0, "componentType" : 5126, "count" : 110, "type" : "VEC3", "max" : [47.418243408203125, 187.48782348632812, -11.020658493041992], "min" : [-47.418251037597656, 162.20069885253906, -51.10506820678711], "name" : "POSITION"}, {"bufferView" : 5, "byteOffset" : 12, "componentType" : 5126, "count" : 110, "type" : "VEC3", "max" : [0.9984503388404846, 0.8972004652023315, 0.9281842708587646], "min" : [-0.9984573125839233, -0.8756752014160156, -0.5447319149971008], "name" : "NORMAL"}, {"bufferView" : 5, "byteOffset" : 24, "componentType" : 5126, "count" : 110, "type" : "VEC2", "max" : [0.5507000088691711, 0.7202000021934509], "min" : [0.3960999846458435, 0.5224000215530396], "name" : "TEXCOORD_0"}, {"bufferView" : 0, "byteOffset" : 55476, "componentType" : 5123, "count" : 603, "type" : "SCALAR", "max" : [144], "min" : [0]}, {"bufferView" : 7, "byteOffset" : 0, "componentType" : 5126, "count" : 145, "type" : "VEC3", "max" : [15.070967674255371, 181.5309295654297, 15.259899139404297], "min" : [-15.070968627929688, 143.9375, -10.607988357543945], "name" : "POSITION"}, {"bufferView" : 7, "byteOffset" : 12, "componentType" : 5126, "count" : 145, "type" : "VEC3", "max" : [0.99567049741745, 0.6238424181938171, 0.9598079323768616], "min" : [-0.9956790804862976, -0.9842114448547363, -0.9943624138832092], "name" : "NORMAL"}, {"bufferView" : 7, "byteOffset" : 24, "componentType" : 5126, "count" : 145, "type" : "VEC2", "max" : [0.10249999910593033, 0.24470001459121704], "min" : [0.004699999932199717, 0.052500009536743164], "name" : "TEXCOORD_0"}], "asset" : {"generator" : "Aspose.3D 21.3.1", "version" : "2.0"}, "buffers" : [{"uri" : "buffer.bin", "byteLength" : 5218864}], "bufferViews" : [{"buffer" : 0, "byteOffset" : 0, "byteLength" : 56684, "target" : 34963}, {"buffer" : 0, "byteOffset" : 56688, "byteLength" : 864960, "byteStride" : 32, "target" : 34962}, {"buffer" : 0, "byteOffset" : 921652, "byteLength" : 1063808}, {"buffer" : 0, "byteOffset" : 1985464, "byteLength" : 11136, "byteStride" : 32, "target" : 34962}, {"buffer" : 0, "byteOffset" : 1996604, "byteLength" : 1063808}, {"buffer" : 0, "byteOffset" : 3060416, "byteLength" : 11520, "byteStride" : 32, "target" : 34962}, {"buffer" : 0, "byteOffset" : 3071940, "byteLength" : 1063808}, {"buffer" : 0, "byteOffset" : 4135752, "byteLength" : 19296, "byteStride" : 32, "target" : 34962}, {"buffer" : 0, "byteOffset" : 4155052, "byteLength" : 1063808}], "images" : [{"mimeType" : "image/png", "bufferView" : 2}, {"mimeType" : "image/png", "bufferView" : 4}, {"mimeType" : "image/png", "bufferView" : 6}, {"mimeType" : "image/png", "bufferView" : 8}], "materials" : [{"pbrMetallicRoughness" : {"baseColorFactor" : [1, 1, 1, 1], "metallicFactor" : 1, "roughnessFactor" : 1}, "emissiveTexture" : {"index" : 0, "texCoord" : 0}, "emissiveFactor" : [1, 1, 1], "alphaMode" : "OPAQUE", "doubleSided" : false}, {"pbrMetallicRoughness" : {"baseColorFactor" : [1, 1, 1, 1], "metallicFactor" : 1, "roughnessFactor" : 1}, "emissiveTexture" : {"index" : 1, "texCoord" : 0}, "emissiveFactor" : [1, 1, 1], "alphaMode" : "OPAQUE", "doubleSided" : false}, {"pbrMetallicRoughness" : {"baseColorFactor" : [1, 1, 1, 1], "metallicFactor" : 1, "roughnessFactor" : 1}, "emissiveTexture" : {"index" : 2, "texCoord" : 0}, "emissiveFactor" : [1, 1, 1], "alphaMode" : "OPAQUE", "doubleSided" : false}, {"pbrMetallicRoughness" : {"baseColorFactor" : [1, 1, 1, 1], "metallicFactor" : 1, "roughnessFactor" : 1}, "emissiveTexture" : {"index" : 3, "texCoord" : 0}, "emissiveFactor" : [1, 1, 1], "alphaMode" : "OPAQUE", "doubleSided" : false}], "meshes" : [{"primitives" : [{"attributes" : {"POSITION" : 1, "NORMAL" : 2, "TEXCOORD_0" : 3}, "indices" : 0, "material" : 0, "mode" : 4}, {"attributes" : {"POSITION" : 5, "NORMAL" : 6, "TEXCOORD_0" : 7}, "indices" : 4, "material" : 1, "mode" : 4}, {"attributes" : {"POSITION" : 9, "NORMAL" : 10, "TEXCOORD_0" : 11}, "indices" : 8, "material" : 2, "mode" : 4}, {"attributes" : {"POSITION" : 13, "NORMAL" : 14, "TEXCOORD_0" : 15}, "indices" : 12, "material" : 3, "mode" : 4}]}], "nodes" : [{"mesh" : 0, "name" : "Mesh_0"}, {"children" : [0], "matrix" : [-1, 0, 0, 0, 0, 1, 0, 0, 0, 0, 1, 0, 0, 0, 0, 1], "name" : "model"}], "samplers" : [{"magFilter" : 9729, "minFilter" : 9729, "wrapS" : 10497, "wrapT" : 10497}, {"magFilter" : 9729, "minFilter" : 9729, "wrapS" : 10497, "wrapT" : 10497}, {"magFilter" : 9729, "minFilter" : 9729, "wrapS" : 10497, "wrapT" : 10497}, {"magFilter" : 9729, "minFilter" : 9729, "wrapS" : 10497, "wrapT" : 10497}], "scene" : 0, "scenes" : [{"nodes" : [1]}], "textures" : [{"sampler" : 0, "source" : 0}, {"sampler" : 1, "source" : 1}, {"sampler" : 2, "source" : 2}, {"sampler" : 3, "source" : 3}]}